<svg id="total_winners" xmlns="http://www.w3.org/2000/svg" viewBox="0 0 30 29.813">
  <defs>
    <style>
      .cls-1 {
        fill: #ee8610;
      }

      .cls-2 {
        fill: #ffc923;
      }

      .cls-3 {
        fill: #ff5418;
      }

      .cls-4 {
        fill: #931700;
      }

      .cls-5 {
        fill: #ffdf65;
      }
    </style>
  </defs>
  <path id="Path_38640" data-name="Path 38640" class="cls-1" d="M122.308,13.88a.241.241,0,0,0,.007-.034,1.836,1.836,0,0,1,2.064-1.3,2.81,2.81,0,0,1,2.016,2.314c.892,3.514-1.634,6.087-4.33,7.85-.7.459-2.488,1.463-3.2,1.9l0,0a.922.922,0,0,1,.181-.081.907.907,0,0,1,1.044.383c.892-.54,1.761-1.116,2.614-1.718a11.438,11.438,0,0,0,3.166-3.032,6.951,6.951,0,0,0,1.039-5.319,4.423,4.423,0,0,0-.416-1.08c-.642-1.182-1.838-2.14-3.272-1.569a2.489,2.489,0,0,0-1.39,1.518,2.761,2.761,0,0,0-.044,1.082c0,.015.005.027.008.037A.9.9,0,0,1,122.308,13.88Z" transform="translate(-97.065 -11.843)"/>
  <path id="Path_38641" data-name="Path 38641" class="cls-1" d="M146.632,28.12h0a.029.029,0,0,0,0,.012A.025.025,0,0,0,146.632,28.12Z" transform="translate(-120.134 -25.21)"/>
  <path id="Path_38642" data-name="Path 38642" class="cls-1" d="M128.914,32.04a4.81,4.81,0,0,0,1.271-.955A4.57,4.57,0,0,0,131,29.731a4.947,4.947,0,0,0,.352-1.451.89.89,0,0,1-.516.718,4.969,4.969,0,0,1-.223.565,4.142,4.142,0,0,1-.8,1.163,4.208,4.208,0,0,1-1.173.767c-.1.044-.195.086-.295.125-.032.247-.066.494-.107.74A6.993,6.993,0,0,0,128.914,32.04Z" transform="translate(-104.857 -25.343)"/>
  <path id="Path_38643" data-name="Path 38643" class="cls-2" d="M137.907,23.459c0-.005,0-.01,0-.015v-.012a.88.88,0,0,0-.039-.335.893.893,0,0,0-1.122-.577.872.872,0,0,0-.091.039.888.888,0,0,0-.515.956.851.851,0,0,0,.027.127.894.894,0,0,0,1.124.577.857.857,0,0,0,.1-.042A.891.891,0,0,0,137.907,23.459Z" transform="translate(-111.411 -20.522)"/>
  <path id="Path_38644" data-name="Path 38644" class="cls-2" d="M116.852,85.684a.923.923,0,0,0-.181.081.908.908,0,1,0,1.324.506.843.843,0,0,0-.1-.2A.908.908,0,0,0,116.852,85.684Z" transform="translate(-95.306 -72.195)"/>
  <path id="Path_38645" data-name="Path 38645" class="cls-1" d="M5.273,14.841c0-.012.007-.024.01-.039a2.79,2.79,0,0,0-.044-1.082A2.493,2.493,0,0,0,3.849,12.2c-1.434-.569-2.631.388-3.272,1.569a4.424,4.424,0,0,0-.416,1.08A6.951,6.951,0,0,0,1.2,20.17,11.487,11.487,0,0,0,4.365,23.2c.853.6,1.722,1.178,2.614,1.718a.906.906,0,0,1,1.046-.383.923.923,0,0,1,.181.081,0,0,0,0,1,0,0c-.713-.438-2.5-1.442-3.2-1.9-2.7-1.762-5.222-4.335-4.33-7.85a2.812,2.812,0,0,1,2.016-2.314,1.837,1.837,0,0,1,2.064,1.3.24.24,0,0,1,.007.034A.887.887,0,0,1,5.273,14.841Z" transform="translate(0.001 -11.847)"/>
  <path id="Path_38646" data-name="Path 38646" class="cls-1" d="M20.71,28.12s0,.008,0,.012,0-.008,0-.012Z" transform="translate(-17.204 -25.21)"/>
  <path id="Path_38647" data-name="Path 38647" class="cls-1" d="M20.73,28.28a4.946,4.946,0,0,0,.352,1.451,4.534,4.534,0,0,0,.816,1.354,4.774,4.774,0,0,0,1.271.955,7.4,7.4,0,0,0,.674.318q-.053-.333-.1-.67l-.01-.069c-.1-.039-.2-.081-.293-.125a4.285,4.285,0,0,1-1.173-.767,4.118,4.118,0,0,1-.8-1.163A5.3,5.3,0,0,1,21.248,29,.883.883,0,0,1,20.73,28.28Z" transform="translate(-17.221 -25.343)"/>
  <path id="Path_38648" data-name="Path 38648" class="cls-2" d="M22.456,23.652a.829.829,0,0,0,.027-.125.887.887,0,0,0-.513-.958.871.871,0,0,0-.091-.039.892.892,0,0,0-1.122.577.88.88,0,0,0-.039.335v.012c0,.005,0,.01,0,.015a.893.893,0,0,0,.516.718.636.636,0,0,0,.1.042A.893.893,0,0,0,22.456,23.652Z" transform="translate(-17.208 -20.53)"/>
  <path id="Path_38649" data-name="Path 38649" class="cls-2" d="M40.554,86.067a.907.907,0,1,0,1.226-.3.922.922,0,0,0-.181-.081A.9.9,0,0,0,40.554,86.067Z" transform="translate(-33.141 -72.195)"/>
  <path id="Path_38650" data-name="Path 38650" class="cls-1" d="M67.6,126.87a2.56,2.56,0,0,1-2.245,3.794h6.2a2.56,2.56,0,0,1-2.245-3.794q-.419.4-.855.77C68.168,127.391,67.884,127.134,67.6,126.87Z" transform="translate(-53.459 -105.903)"/>
  <rect id="Rectangle_9327" data-name="Rectangle 9327" class="cls-2" width="6.201" height="0.806" transform="translate(11.901 25.083)"/>
  <path id="Path_38651" data-name="Path 38651" class="cls-3" d="M53.21,154.04v2.377H63.525V154.04H53.21Z" transform="translate(-43.365 -128.151)"/>
  <path id="Path_38652" data-name="Path 38652" class="cls-4" d="M47.093,168.08l-.5,1.547H59.146l-.67-1.547H47.093Z" transform="translate(-37.866 -139.814)"/>
  <path id="Path_38653" data-name="Path 38653" class="cls-2" d="M37.682,39.478c-.02-.235-.039-.471-.052-.708C37.642,39.007,37.66,39.242,37.682,39.478Z" transform="translate(-30.883 -34.057)"/>
  <path id="Path_38654" data-name="Path 38654" class="cls-2" d="M40.21,58.212c-.042-.183-.083-.367-.12-.552C40.127,57.843,40.168,58.027,40.21,58.212Z" transform="translate(-32.901 -49.273)"/>
  <path id="Path_38655" data-name="Path 38655" class="cls-2" d="M41.374,63.151q-.208-.678-.374-1.371Q41.165,62.473,41.374,63.151Z" transform="translate(-33.644 -52.637)"/>
  <path id="Path_38656" data-name="Path 38656" class="cls-2" d="M39.274,53.282c-.044-.227-.086-.454-.124-.682C39.187,52.829,39.23,53.055,39.274,53.282Z" transform="translate(-32.129 -45.119)"/>
  <path id="Path_38657" data-name="Path 38657" class="cls-2" d="M38.118,44.678c-.022-.176-.041-.352-.058-.528C38.077,44.328,38.1,44.5,38.118,44.678Z" transform="translate(-31.236 -38.188)"/>
  <path id="Path_38658" data-name="Path 38658" class="cls-2" d="M54.951,50.133c-.42-.609-.813-1.241-1.171-1.891a22.415,22.415,0,0,0,4.205,5.434q.419.4.855.77c.291-.249.577-.506.855-.77a22.3,22.3,0,0,0,6.688-12.612c.039-.245.074-.491.107-.74.066-.516.117-1.038.146-1.564h-.313Z" transform="translate(-43.691 -33.42)"/>
  <path id="Path_38659" data-name="Path 38659" class="cls-2" d="M50.414,88.146q-.358-.65-.674-1.326Q50.055,87.5,50.414,88.146Z" transform="translate(-40.81 -73.177)"/>
  <path id="Path_38660" data-name="Path 38660" class="cls-2" d="M48.309,83.63q-.15-.322-.289-.65Q48.16,83.308,48.309,83.63Z" transform="translate(-39.406 -70.045)"/>
  <path id="Path_38661" data-name="Path 38661" class="cls-2" d="M45.275,75.944c-.19-.445-.364-.9-.525-1.354C44.911,75.049,45.085,75.5,45.275,75.944Z" transform="translate(-36.718 -63.145)"/>
  <path id="Path_38662" data-name="Path 38662" class="cls-2" d="M43.628,71.2c-.069-.2-.134-.4-.2-.6Q43.526,70.9,43.628,71.2Z" transform="translate(-35.64 -59.889)"/>
  <path id="Path_38663" data-name="Path 38663" class="cls-2" d="M38.54,48.42q.043.335.1.67l.005.029C38.6,48.886,38.57,48.654,38.54,48.42Z" transform="translate(-31.629 -41.689)"/>
  <path id="Path_38664" data-name="Path 38664" class="cls-3" d="M44.321,15.643h8.06a4.914,4.914,0,0,1-.451-2.468,3.655,3.655,0,0,1,1.006-2.245H34.67a3.655,3.655,0,0,1,1.006,2.245,4.937,4.937,0,0,1-.451,2.468h9.1Z" transform="translate(-28.801 -10.93)"/>
  <path id="Path_38665" data-name="Path 38665" class="cls-5" d="M37.905,41.084s0,.007,0,.01c.041.229.088.455.137.682l.039.173c.041.185.086.369.133.552.013.049.024.1.038.146q.183.7.415,1.371c.013.041.028.081.043.122q.1.3.22.6c.009.025.019.051.028.074q.268.688.582,1.354c.011.022.021.044.032.066q.155.328.321.65h0q.349.675.748,1.326a.124.124,0,0,0,.013.02,22.75,22.75,0,0,0,1.3,1.891L54.573,38.75H37.62c.015.237.036.472.058.708l.023.2c.019.176.041.352.064.528.006.041.009.083.015.124l.011.069C37.827,40.621,37.864,40.853,37.905,41.084Z" transform="translate(-31.251 -33.574)"/>
</svg>
