<svg xmlns="http://www.w3.org/2000/svg" viewBox="0 0 30 30">
  <defs>
    <style>
      .cls-1 {
        fill: #95a5a5;
      }

      .cls-2 {
        fill: #bdc3c7;
      }

      .cls-3 {
        fill: #b19046;
      }

      .cls-4 {
        fill: #e4c05c;
      }

      .cls-5 {
        fill: #7f6e5d;
      }

      .cls-6 {
        fill: #cbb292;
      }

      .cls-7 {
        fill: #e64c3c;
      }

      .cls-8 {
        fill: #ecf0f1;
      }
    </style>
  </defs>
  <g id="total_leagues" transform="translate(0.001 -0.481)">
    <path id="Path_38723" data-name="Path 38723" class="cls-1" d="M447.292,3.217l-1.122,1.123a.576.576,0,0,1-.729.036l.005-.005-1.9-1.893a.556.556,0,0,1,.036-.724L444.7.63a.579.579,0,0,1,.812.036L447.256,2.4A.579.579,0,0,1,447.292,3.217Zm0,0" transform="translate(-417.441 0)"/>
    <path id="Path_38724" data-name="Path 38724" class="cls-2" d="M390.726,36.434l-3.517,3.517-1.9-1.9,3.523-3.512a.591.591,0,0,0,.072.088l1.738,1.738A.594.594,0,0,0,390.726,36.434Zm0,0" transform="translate(-362.727 -32.058)"/>
    <path id="Path_38725" data-name="Path 38725" class="cls-1" d="M336.585,99.375l.036-.036-1.9-1.9,2.964-2.964,1.9,1.9L336.564,99.4A.088.088,0,0,0,336.585,99.375Zm0,0" transform="translate(-315.109 -88.487)"/>
    <path id="Path_38726" data-name="Path 38726" class="cls-3" d="M29.892,159.561,19.655,149.283l1.857-1.862a.262.262,0,0,0,0-.372,1.707,1.707,0,0,1-.44-.807c-.005-.005,0-.01-.005-.01a1.636,1.636,0,0,1-.036-.352,1.552,1.552,0,0,1,.145-.667c.016-.036.031-.067.046-.1l.047-.093a.217.217,0,0,0,.036-.057.462.462,0,0,1,.041-.067c.016-.016.031-.036.052-.057s.026-.031.041-.046.01-.016.015-.021a.088.088,0,0,0,.021-.026l.036-.036-1.9-1.9c-.036.036-.083.078-.124.114a1.259,1.259,0,0,1-.135.1,1.079,1.079,0,0,1-.217.114,1.6,1.6,0,0,1-1.06.114,1.644,1.644,0,0,1-.786-.439l-.062-.062a.262.262,0,0,0-.372,0L15,144.612l-.186.191-1.366,1.366L15,144.612l-1.857-1.862a.262.262,0,0,0-.372,0l-.062.062a1.643,1.643,0,0,1-.786.439,1.6,1.6,0,0,1-1.06-.114,1.085,1.085,0,0,1-.217-.114c-.046-.031-.088-.067-.134-.1a.876.876,0,0,1-.124-.114l-1.9,1.9.036.036c.005.011.016.016.021.026a.071.071,0,0,0,.016.021c.016.016.026.031.041.046s.036.041.052.057a.483.483,0,0,1,.041.067.212.212,0,0,0,.036.057l.046.093c.016.031.031.062.046.1a1.552,1.552,0,0,1,.145.667,1.607,1.607,0,0,1-.036.352c-.005,0,0,.005-.005.01a1.708,1.708,0,0,1-.439.807.262.262,0,0,0,0,.372l1.857,1.862L.107,159.561a.39.39,0,0,0-.041.486,18.44,18.44,0,0,0,4.211,4.226.39.39,0,0,0,.486-.041L15,153.959l2.385,2.39a3.621,3.621,0,0,1,5.08,5.1l2.773,2.783a.39.39,0,0,0,.486.041,18.44,18.44,0,0,0,4.211-4.226A.39.39,0,0,0,29.892,159.561Zm-11.965-8.545.569-.569-.828.832Zm0,0" transform="translate(0 -133.859)"/>
    <path id="Path_38727" data-name="Path 38727" class="cls-4" d="M21.512,147.421l-1.857,1.862-.176.181-1.552,1.552-.729.74-2.2,2.2L4.763,164.232a.39.39,0,0,1-.486.041,18.44,18.44,0,0,1-4.211-4.226.39.39,0,0,1,.041-.486l10.237-10.278,2.188-2.2,2.281-2.281.186-.191,1.857-1.862a.262.262,0,0,1,.372,0l.062.062a1.644,1.644,0,0,0,.786.439,1.6,1.6,0,0,0,1.06-.114,1.079,1.079,0,0,0,.217-.114c.047-.031.088-.067.135-.1a.887.887,0,0,0,.124-.114l1.9,1.9-.036.036a.088.088,0,0,1-.021.026c-.005.005-.01.016-.015.021s-.026.031-.041.046-.036.041-.052.057a.462.462,0,0,0-.041.067.217.217,0,0,1-.036.057l-.047.093c-.015.031-.031.062-.046.1a1.552,1.552,0,0,0-.145.667,1.636,1.636,0,0,0,.036.352c.005,0,0,.005.005.01a1.707,1.707,0,0,0,.44.807.262.262,0,0,1,0,.372Zm0,0" transform="translate(0 -133.859)"/>
    <path id="Path_38728" data-name="Path 38728" class="cls-5" d="M3.9,2.477,2,4.37,2,4.375a.576.576,0,0,1-.729-.036L.15,3.217A.579.579,0,0,1,.186,2.4L1.93.666A.579.579,0,0,1,2.742.63L3.864,1.752A.556.556,0,0,1,3.9,2.477Zm0,0" transform="translate(-0.002)"/>
    <path id="Path_38729" data-name="Path 38729" class="cls-5" d="M97.177,99.375c.005.011.016.016.021.026L94.172,96.38l1.9-1.9,2.964,2.964-1.9,1.9Zm0,0" transform="translate(-88.654 -88.487)"/>
    <path id="Path_38730" data-name="Path 38730" class="cls-6" d="M39.566,38.048l-1.9,1.9-3.517-3.517a.592.592,0,0,0,.088-.073l1.738-1.738a.581.581,0,0,0,.073-.088Zm0,0" transform="translate(-32.144 -32.058)"/>
    <path id="Path_38731" data-name="Path 38731" class="cls-7" d="M278.184,362.515a3.419,3.419,0,0,0-.926-.124,3.621,3.621,0,1,0,2.809,5.9,3.559,3.559,0,0,0,.812-2.281A3.61,3.61,0,0,0,278.184,362.515Zm0,0" transform="translate(-257.603 -340.702)"/>
    <path id="Path_38732" data-name="Path 38732" class="cls-8" d="M311.425,369.513a3.63,3.63,0,0,1-.926.119c-3.492-3.621,0-7.242,0-7.242a3.419,3.419,0,0,1,.926.124A5.058,5.058,0,0,0,311.425,369.513Zm0,0" transform="translate(-290.844 -340.702)"/>
    <g id="Group_24699" data-name="Group 24699" transform="translate(12.532 10.945)">
      <path id="Path_38733" data-name="Path 38733" class="cls-7" d="M245.751,183.7l-.735.735-4.63-4.629c-.01-.011-.021-.026-.031-.036l.73-.729c.01.01.026.021.036.031Zm0,0" transform="translate(-238.804 -179.043)"/>
      <path id="Path_38734" data-name="Path 38734" class="cls-7" d="M219.27,210.188l-.729.74-4.635-4.635c-.01-.01-.021-.026-.031-.036l.729-.729c.01.01.026.021.036.031Zm0,0" transform="translate(-213.875 -203.975)"/>
    </g>
  </g>
</svg>
