<svg xmlns="http://www.w3.org/2000/svg" viewBox="0 0 30 27.273">
  <defs>
    <style>
      .cls-1 {
        fill: #0e9347;
      }

      .cls-2 {
        fill: #0d8944;
      }

      .cls-3 {
        fill: #3bb54a;
      }

      .cls-4 {
        fill: #ffca5d;
      }

      .cls-5 {
        fill: #f6b545;
      }

      .cls-6 {
        fill: #ffcb5b;
      }

      .cls-7 {
        fill: #ffe27a;
      }

      .cls-8 {
        fill: #f19920;
      }

      .cls-9 {
        fill: #e78825;
      }

      .cls-10 {
        fill: #89c763;
        font-size: 10px;
        font-family: PingFangSC-Semibold, PingFang SC;
        font-weight: 600;
      }
    </style>
  </defs>
  <g id="total_payouts" transform="translate(0 -23.272)">
    <path id="Path_38692" data-name="Path 38692" class="cls-1" d="M28.636,41H1.364A1.368,1.368,0,0,1,0,39.636v-15a1.368,1.368,0,0,1,1.364-1.364H28.636A1.368,1.368,0,0,1,30,24.636v15A1.368,1.368,0,0,1,28.636,41Z"/>
    <path id="Path_38693" data-name="Path 38693" class="cls-2" d="M256.368,232.727a4.563,4.563,0,0,0-3.818,1.977,5.086,5.086,0,0,0-2.318-.614,4.771,4.771,0,0,0-4.7,4.091h14.25a1.387,1.387,0,0,0,1.364-1.159A4.857,4.857,0,0,0,256.368,232.727Z" transform="translate(-231.141 -197.182)"/>
    <path id="Path_38694" data-name="Path 38694" class="cls-3" d="M47.818,61.546H26a2.735,2.735,0,0,0-2.727-2.727V49.273A2.735,2.735,0,0,0,26,46.546H47.818a2.735,2.735,0,0,0,2.727,2.727v9.545A2.735,2.735,0,0,0,47.818,61.546Z" transform="translate(-21.909 -21.91)"/>
    <g id="Group_24695" data-name="Group 24695" transform="translate(5.455 25.999)">
      <path id="Path_38695" data-name="Path 38695" class="cls-1" d="M262.941,232.727a4.563,4.563,0,0,0-3.818,1.977,5.086,5.086,0,0,0-2.318-.614,4.684,4.684,0,0,0-4.3,2.727h11.114a2.721,2.721,0,0,1,2.659-2.727A4.929,4.929,0,0,0,262.941,232.727Z" transform="translate(-243.168 -223.182)"/>
      <ellipse id="Ellipse_320" data-name="Ellipse 320" class="cls-1" cx="5.455" cy="6.136" rx="5.455" ry="6.136" transform="translate(4.091 0)"/>
      <circle id="Ellipse_321" data-name="Ellipse 321" class="cls-1" cx="1.364" cy="1.364" r="1.364" transform="translate(0 4.773)"/>
      <circle id="Ellipse_322" data-name="Ellipse 322" class="cls-1" cx="1.364" cy="1.364" r="1.364" transform="translate(16.364 4.773)"/>
    </g>
    <circle id="Ellipse_323" data-name="Ellipse 323" class="cls-4" cx="4.773" cy="4.773" r="4.773" transform="translate(12.954 36.908)"/>
    <circle id="Ellipse_324" data-name="Ellipse 324" class="cls-5" cx="4.773" cy="4.773" r="4.773" transform="translate(19.091 35.545)"/>
    <path id="Path_38697" data-name="Path 38697" class="cls-6" d="M330.591,232.727a4.773,4.773,0,1,0,4.773,4.773A4.743,4.743,0,0,0,330.591,232.727Zm0,8.182A3.409,3.409,0,1,1,334,237.5,3.376,3.376,0,0,1,330.591,240.909Z" transform="translate(-306.727 -197.182)"/>
    <path id="Path_38698" data-name="Path 38698" class="cls-5" d="M407.273,318.887h0a4.686,4.686,0,0,0,4.773-4.7h-.068a.725.725,0,0,0-.682.614,4.122,4.122,0,0,1-1.3,2.455,3.863,3.863,0,0,1-2.114,1.023A.611.611,0,0,0,407.273,318.887Z" transform="translate(-383.409 -273.865)"/>
    <path id="Path_38699" data-name="Path 38699" class="cls-7" d="M330.591,233.866h0a4.686,4.686,0,0,0-4.773,4.7h.068a.725.725,0,0,0,.682-.614,4.122,4.122,0,0,1,1.3-2.455,3.863,3.863,0,0,1,2.114-1.023A.611.611,0,0,0,330.591,233.866Z" transform="translate(-306.727 -198.253)"/>
    <path id="Path_38700" data-name="Path 38700" class="cls-8" d="M349.568,259.886a3.376,3.376,0,0,1,3.409-3.409,3.216,3.216,0,0,1,2.182.818,3.4,3.4,0,0,0-6.068,2.114A3.269,3.269,0,0,0,350.318,262,3.2,3.2,0,0,1,349.568,259.886Z" transform="translate(-328.637 -219.092)"/>
    <path id="Path_38701" data-name="Path 38701" class="cls-6" d="M437.253,310.819a.25.25,0,0,1-.2-.068.33.33,0,0,1,0-.477,2.275,2.275,0,0,0,.614-1.568.341.341,0,1,1,.682,0,3.148,3.148,0,0,1-.75,2.045A.741.741,0,0,1,437.253,310.819Z" transform="translate(-411.344 -268.387)"/>
    <g id="Group_24696" data-name="Group 24696" transform="translate(19.159 36.908)">
      <path id="Path_38702" data-name="Path 38702" class="cls-8" d="M396.319,283.365a.644.644,0,0,1-.682-.682v-2.727a.682.682,0,0,1,1.364,0v2.727A.644.644,0,0,1,396.319,283.365Z" transform="translate(-391.614 -277.91)"/>
      <path id="Path_38703" data-name="Path 38703" class="cls-8" d="M334.208,263.432a5.54,5.54,0,0,0-3.273-3.682,5.7,5.7,0,0,0-2.591-3.75,4.929,4.929,0,0,0-1.364,3.341,4.743,4.743,0,0,0,4.773,4.773A3.954,3.954,0,0,0,334.208,263.432Z" transform="translate(-326.981 -256)"/>
    </g>
    <g id="Group_24697" data-name="Group 24697" transform="translate(20.454 37.795)">
      <path id="Path_38704" data-name="Path 38704" class="cls-9" d="M350.317,276.242a3.587,3.587,0,0,1-.818-2.182,3.3,3.3,0,0,1,1.091-2.455,2.965,2.965,0,0,0-.409-.477,3.34,3.34,0,0,0-1.091,2.523A3.269,3.269,0,0,0,350.317,276.242Z" transform="translate(-349.09 -271.128)"/>
      <path id="Path_38705" data-name="Path 38705" class="cls-9" d="M395.636,321.164v.955a.682.682,0,1,0,1.364,0v-.136A5.571,5.571,0,0,0,395.636,321.164Z" transform="translate(-392.909 -318.232)"/>
    </g>
    <path id="Path_38706" data-name="Path 38706" class="cls-5" d="M333.113,264.526a4.359,4.359,0,0,0-.545-1.3,3.3,3.3,0,0,1-1.977.682,3.376,3.376,0,0,1-3.409-3.409,3.34,3.34,0,0,1,1.091-2.523,4.159,4.159,0,0,0-1.091-.818,4.929,4.929,0,0,0-1.364,3.341,4.743,4.743,0,0,0,4.773,4.773A4.571,4.571,0,0,0,333.113,264.526Z" transform="translate(-306.727 -220.186)"/>
    <path id="Path_38707" data-name="Path 38707" class="cls-8" d="M409.59,372.364a4.713,4.713,0,0,1-1.7.682.725.725,0,0,0-.614.682h0a4.572,4.572,0,0,0,2.523-.75Z" transform="translate(-383.408 -328.637)"/>
    <path id="Path_38708" data-name="Path 38708" class="cls-6" d="M327.182,257.164a4.929,4.929,0,0,0-1.364,3.341h.068a.725.725,0,0,0,.682-.614A4.243,4.243,0,0,1,327.8,257.5,2.765,2.765,0,0,1,327.182,257.164Z" transform="translate(-306.727 -220.187)"/>
    <circle id="Ellipse_325" data-name="Ellipse 325" class="cls-5" cx="4.773" cy="4.773" r="4.773" transform="translate(12.954 36.908)"/>
    <path id="Path_38709" data-name="Path 38709" class="cls-8" d="M290.909,318.954a4.725,4.725,0,0,0,.2,1.364h.477a4.756,4.756,0,0,0,4.568-6.136h-.477A4.743,4.743,0,0,0,290.909,318.954Z" transform="translate(-273.864 -273.864)"/>
    <path id="Path_38710" data-name="Path 38710" class="cls-6" d="M225.863,256a4.773,4.773,0,1,0,4.773,4.773A4.743,4.743,0,0,0,225.863,256Zm0,8.182a3.409,3.409,0,1,1,3.409-3.409A3.376,3.376,0,0,1,225.863,264.182Z" transform="translate(-208.136 -219.092)"/>
    <path id="Path_38711" data-name="Path 38711" class="cls-5" d="M302.545,342.159h0a4.686,4.686,0,0,0,4.773-4.7h-.068a.725.725,0,0,0-.682.614,4.122,4.122,0,0,1-1.3,2.455,3.863,3.863,0,0,1-2.114,1.023A.611.611,0,0,0,302.545,342.159Z" transform="translate(-284.818 -295.774)"/>
    <path id="Path_38712" data-name="Path 38712" class="cls-7" d="M225.863,257.139h0a4.686,4.686,0,0,0-4.773,4.7h.068a.725.725,0,0,0,.682-.614,4.122,4.122,0,0,1,1.3-2.455,3.863,3.863,0,0,1,2.114-1.023A.611.611,0,0,0,225.863,257.139Z" transform="translate(-208.136 -220.162)"/>
    <path id="Path_38713" data-name="Path 38713" class="cls-8" d="M244.84,283.159a3.376,3.376,0,0,1,3.409-3.409,3.216,3.216,0,0,1,2.182.818,3.4,3.4,0,0,0-6.068,2.114,3.269,3.269,0,0,0,1.227,2.591A3.2,3.2,0,0,1,244.84,283.159Z" transform="translate(-230.045 -241.001)"/>
    <path id="Path_38714" data-name="Path 38714" class="cls-6" d="M332.526,334.091a.25.25,0,0,1-.2-.068.33.33,0,0,1,0-.477,2.276,2.276,0,0,0,.614-1.568.341.341,0,1,1,.682,0,3.148,3.148,0,0,1-.75,2.045A.741.741,0,0,1,332.526,334.091Z" transform="translate(-312.753 -290.296)"/>
    <path id="Path_38715" data-name="Path 38715" class="cls-8" d="M291.591,306.638a.644.644,0,0,1-.682-.682v-2.727a.682.682,0,1,1,1.364,0v2.727A.644.644,0,0,1,291.591,306.638Z" transform="translate(-273.864 -262.911)"/>
    <g id="Group_24698" data-name="Group 24698" transform="translate(16.364 40.317)">
      <path id="Path_38716" data-name="Path 38716" class="cls-5" d="M294.728,314.249a3.987,3.987,0,0,1,.273,1.3,3.376,3.376,0,0,1-3.409,3.409,2.319,2.319,0,0,1-.682-.068v.068a4.725,4.725,0,0,0,.2,1.364h.477a4.756,4.756,0,0,0,4.568-6.136h-.477A4.508,4.508,0,0,0,294.728,314.249Z" transform="translate(-290.228 -314.181)"/>
      <circle id="Ellipse_326" data-name="Ellipse 326" class="cls-5" cx="4.773" cy="4.773" r="4.773" transform="translate(0 0.682)"/>
    </g>
    <path id="Path_38717" data-name="Path 38717" class="cls-6" d="M284.045,325.818a4.773,4.773,0,1,0,4.773,4.773A4.743,4.743,0,0,0,284.045,325.818Zm0,8.182a3.409,3.409,0,1,1,3.409-3.409A3.376,3.376,0,0,1,284.045,334Z" transform="translate(-262.908 -284.819)"/>
    <path id="Path_38718" data-name="Path 38718" class="cls-5" d="M360.727,411.978h0a4.686,4.686,0,0,0,4.773-4.7h-.068a.725.725,0,0,0-.682.614,4.122,4.122,0,0,1-1.3,2.455,3.863,3.863,0,0,1-2.114,1.023A.611.611,0,0,0,360.727,411.978Z" transform="translate(-339.591 -361.501)"/>
    <path id="Path_38719" data-name="Path 38719" class="cls-7" d="M284.045,326.957h0a4.686,4.686,0,0,0-4.773,4.7h.068a.725.725,0,0,0,.682-.614,4.122,4.122,0,0,1,1.3-2.455,3.863,3.863,0,0,1,2.114-1.023A.611.611,0,0,0,284.045,326.957Z" transform="translate(-262.908 -285.89)"/>
    <path id="Path_38720" data-name="Path 38720" class="cls-8" d="M303.022,352.977a3.376,3.376,0,0,1,3.409-3.409,3.216,3.216,0,0,1,2.182.818,3.4,3.4,0,0,0-6.068,2.114,3.269,3.269,0,0,0,1.227,2.591A3.2,3.2,0,0,1,303.022,352.977Z" transform="translate(-284.818 -306.728)"/>
    <path id="Path_38721" data-name="Path 38721" class="cls-6" d="M390.707,403.909a.25.25,0,0,1-.2-.068.33.33,0,0,1,0-.477,2.275,2.275,0,0,0,.614-1.568.341.341,0,1,1,.682,0,3.148,3.148,0,0,1-.75,2.045A.741.741,0,0,1,390.707,403.909Z" transform="translate(-367.525 -356.023)"/>
    <path id="Path_38722" data-name="Path 38722" class="cls-8" d="M349.773,376.455a.644.644,0,0,1-.682-.682v-2.727a.682.682,0,0,1,1.364,0v2.727A.644.644,0,0,1,349.773,376.455Z" transform="translate(-328.637 -328.637)"/>
    <text id="_" data-name="₹" class="cls-10" transform="translate(11.719 35.737)"><tspan x="0" y="0">₹</tspan></text>
  </g>
</svg>
