<svg xmlns="http://www.w3.org/2000/svg" viewBox="0 0 126.279 37.529">
  <defs>
    <style>
      .cls-1, .cls-7 {
        fill: none;
      }

      .cls-1, .cls-4 {
        stroke: #fff;
      }

      .cls-1, .cls-2, .cls-3 {
        opacity: 0.6;
      }

      .cls-2, .cls-4, .cls-5 {
        fill: #fff;
      }

      .cls-2 {
        font-size: 11px;
        font-family: Barlow-Bold, Barlow;
        font-weight: 700;
        letter-spacing: 0.018em;
      }

      .cls-4 {
        stroke-miterlimit: 10;
        stroke-width: 0.5px;
      }

      .cls-5 {
        font-size: 10px;
        font-family: Barlow-Light, Barlow;
        font-weight: 300;
        opacity: 0.7;
      }

      .cls-6 {
        stroke: none;
      }
    </style>
  </defs>
  <g id="Group_23941" data-name="Group 23941" transform="translate(-24.621 -2937.31)">
    <g id="Rectangle_8923" data-name="Rectangle 8923" class="cls-1" transform="translate(24.621 2937.31)">
      <rect class="cls-6" width="126.279" height="37.529" rx="1"/>
      <rect class="cls-7" x="0.5" y="0.5" width="125.279" height="36.529" rx="0.5"/>
    </g>
    <text id="APP_STORE" data-name="APP STORE" class="cls-2" transform="translate(58 2965.1)"><tspan x="0" y="0">APP STORE</tspan></text>
    <g id="Group_23853" data-name="Group 23853" class="cls-3" transform="translate(38 2946.008)">
      <path id="Path_4053" data-name="Path 4053" class="cls-4" d="M11.064,952.875c.12-.021.2,0,.26.165a3.5,3.5,0,0,1-.76,3.057,4.82,4.82,0,0,1-2.521,1.3.2.2,0,0,1-.24-.186,3.821,3.821,0,0,1,.84-3.057,6.236,6.236,0,0,1,2.421-1.281Zm-5.882,3.9a3.943,3.943,0,0,1,1.741.537,3.06,3.06,0,0,0,1.26.5A5.645,5.645,0,0,0,9.7,957.3a5.125,5.125,0,0,1,1.881-.516,4.253,4.253,0,0,1,3.161,1.735.23.23,0,0,1-.04.289c-1.18,1.012-2.121,2.231-2.121,3.346,0,1.467.92,2.458,2.321,3.346a.2.2,0,0,1,.08.207,7.777,7.777,0,0,1-1.481,3.326,3.5,3.5,0,0,1-2.5,1.611,3.942,3.942,0,0,1-1.641-.434,3.3,3.3,0,0,0-1.16-.393,3.942,3.942,0,0,0-1.28.393,4.514,4.514,0,0,1-1.721.434,2.316,2.316,0,0,1-1.5-.806,8.74,8.74,0,0,1-1.481-2.024A12.926,12.926,0,0,1,.6,961.736a4.928,4.928,0,0,1,4.582-4.958Zm0,.413a4.588,4.588,0,0,0-4.2,4.544A12.671,12.671,0,0,0,2.561,967.6a8.428,8.428,0,0,0,1.4,1.921,2.031,2.031,0,0,0,1.22.682,4.153,4.153,0,0,0,1.581-.392,3.983,3.983,0,0,1,1.421-.434,3.4,3.4,0,0,1,1.34.434,3.422,3.422,0,0,0,1.461.392,3.229,3.229,0,0,0,2.2-1.446,7.634,7.634,0,0,0,1.381-3.016c-1.26-.93-2.421-1.715-2.361-3.594a5.1,5.1,0,0,1,2.121-3.512,3.864,3.864,0,0,0-2.721-1.446,4.889,4.889,0,0,0-1.741.475,4.8,4.8,0,0,1-1.661.558,3.531,3.531,0,0,1-1.441-.537,3.815,3.815,0,0,0-1.581-.5Z" transform="translate(-0.6 -952.868)"/>
    </g>
    <text id="Download_on_the" data-name="Download on the" class="cls-5" transform="translate(58 2952)"><tspan x="0" y="0">Download on the</tspan></text>
  </g>
</svg>
