<svg xmlns="http://www.w3.org/2000/svg" viewBox="0 0 16 16">
  <defs>
    <style>
      .cls-1 {
        fill: #fff;
      }
    </style>
  </defs>
  <g id="instagram" transform="translate(0 -952.4)">
    <path id="Path_36139" data-name="Path 36139" class="cls-1" d="M3.765,952.4A3.746,3.746,0,0,0,0,956.165v8.471A3.746,3.746,0,0,0,3.765,968.4h8.471A3.746,3.746,0,0,0,16,964.635v-8.471a3.746,3.746,0,0,0-3.765-3.765Zm8.941,2.353a.941.941,0,1,1-.941.941A.944.944,0,0,1,12.706,954.753ZM8,956.165A4.235,4.235,0,1,1,3.765,960.4,4.248,4.248,0,0,1,8,956.165Zm0,.941a3.294,3.294,0,1,0,3.294,3.294A3.274,3.274,0,0,0,8,957.106Z"/>
  </g>
</svg>
