<svg xmlns="http://www.w3.org/2000/svg" xmlns:xlink="http://www.w3.org/1999/xlink" width="360" height="640" viewBox="0 0 360 640"><defs><path id="hqfja" d="M73.02 487.7c0-125.16 125.16-250.32 250.33-250.32h109.14c125.17 0 250.33 125.16 250.33 250.33 0 125.16-125.16 250.33-250.33 250.33H323.35c-125.17 0-250.33-125.17-250.33-250.33z"/><path id="hqfjc" d="M-387.01 294.47c0-125.17 125.16-250.33 250.33-250.33h109.14c125.17 0 250.33 125.16 250.33 250.33 0 125.16-125.16 250.33-250.33 250.33h-109.14c-125.17 0-250.33-125.17-250.33-250.33z"/><path id="hqfje" d="M104.04-138.56c0-125.17 125.17-250.33 250.33-250.33h109.15c125.16 0 250.33 125.16 250.33 250.33 0 125.16-125.17 250.33-250.33 250.33H354.37c-125.16 0-250.33-125.17-250.33-250.33z"/><linearGradient id="hqfjb" x1="142.96" x2="282.13" y1="354.86" y2="634.49" gradientUnits="userSpaceOnUse"><stop offset="0" stop-color="#200f0f" stop-opacity=".07"/><stop offset="1" stop-color="#140505"/></linearGradient><linearGradient id="hqfjd" x1="-317.07" x2="-177.9" y1="161.62" y2="441.25" gradientUnits="userSpaceOnUse"><stop offset="0" stop-color="#200f0f" stop-opacity=".07"/><stop offset="1" stop-color="#140505"/></linearGradient><linearGradient id="hqfjf" x1="173.98" x2="313.16" y1="-271.41" y2="8.22" gradientUnits="userSpaceOnUse"><stop offset="0" stop-color="#200f0f" stop-opacity=".07"/><stop offset="1" stop-color="#140505"/></linearGradient></defs><g><g clip-path="url(#clip-4dd43215-84a3-453b-918f-5d837bc2a202)" opacity=".25"><use fill="url(#hqfjb)" xlink:href="#hqfja"/></g><g clip-path="url(#clip-4dd43215-84a3-453b-918f-5d837bc2a202)" opacity=".25"><use fill="url(#hqfjd)" xlink:href="#hqfjc"/></g><g clip-path="url(#clip-4dd43215-84a3-453b-918f-5d837bc2a202)" opacity=".25"><use fill="url(#hqfjf)" xlink:href="#hqfje"/></g></g></svg>