<svg xmlns="http://www.w3.org/2000/svg" xmlns:xlink="http://www.w3.org/1999/xlink" width="140" height="79" viewBox="0 0 140 79"><defs><path id="4zava" d="M46.3 1408.01c-4.7 0-8.5-3.83-8.5-8.5a8.51 8.51 0 0 1 17 0c0 4.67-3.8 8.5-8.5 8.5z"/><path id="4zavb" d="M64.17 1418.97v-2.07c0-2.63-1.26-5.2-3.8-7.59l-.61-.58h8.61a6.04 6.04 0 0 1 6.04 6v4.24z"/><path id="4zavc" d="M31.25 1421.6v-4.7c0-3.86 3.15-7.12 6.87-7.12h16.32c3.7 0 6.66 3.18 6.66 7.12v4.7z"/><path id="4zavd" d="M61.28 1407.03a7.5 7.5 0 0 1-5.07-1.98l-.18-.19.11-.21a10.97 10.97 0 0 0 .07-10.09l-.1-.22.18-.18a7.44 7.44 0 0 1 12.48 5.5 7.41 7.41 0 0 1-7.49 7.37z"/><path id="4zave" d="M51.95 1448.4l-.04-.04c-2.68-1.34-8-4.12-13.24-7.92-4.24-3.07-7.56-6.14-9.92-9.14-2.67-3.44-4.05-6.73-4.05-9.77v-39.05l27.35-5.02 27.36 5.02v39.05c0 3.04-1.38 6.33-4.06 9.77-2.35 3-5.71 6.1-9.9 9.14a97.53 97.53 0 0 1-13.25 7.92l-.07.04z"/><path id="4zavf" d="M64.17 1418.97v-2.07c0-2.63-1.26-5.2-3.8-7.59l-.61-.58h8.61a6.04 6.04 0 0 1 6.04 6v4.24z"/><path id="4zavg" d="M31.25 1421.6v-4.7c0-3.86 3.15-7.12 6.87-7.12h16.32c3.7 0 6.66 3.18 6.66 7.13v4.7z"/><path id="4zavh" d="M61.28 1407.03a7.5 7.5 0 0 1-5.07-1.98l-.18-.19.11-.21a10.97 10.97 0 0 0 .07-10.09l-.1-.22.18-.18a7.44 7.44 0 0 1 12.48 5.5 7.41 7.41 0 0 1-7.49 7.37z"/><path id="4zavi" d="M124.45 1408.01c-4.7 0-8.5-3.83-8.5-8.5a8.51 8.51 0 0 1 17 0c0 4.67-3.8 8.5-8.5 8.5z"/><path id="4zavj" d="M142.33 1418.97v-2.07c0-2.63-1.27-5.2-3.8-7.59l-.62-.58h8.61a6.04 6.04 0 0 1 6.04 6v4.24z"/><path id="4zavk" d="M109.4 1421.6v-4.7c0-3.86 3.15-7.12 6.88-7.12h16.31c3.7 0 6.66 3.18 6.66 7.13v4.7z"/><path id="4zavl" d="M139.43 1407.03a7.5 7.5 0 0 1-5.06-1.98l-.19-.19.11-.21a10.97 10.97 0 0 0 .08-10.09l-.11-.22.18-.18a7.44 7.44 0 0 1 12.48 5.5 7.41 7.41 0 0 1-7.49 7.37z"/><path id="4zavm" d="M130.1 1448.4l-.04-.04c-2.68-1.34-8-4.12-13.24-7.92-4.24-3.07-7.56-6.14-9.92-9.14-2.67-3.44-4.05-6.73-4.05-9.77v-39.05l27.35-5.02 27.36 5.02v39.05c0 3.04-1.38 6.33-4.05 9.77-2.36 3-5.72 6.1-9.92 9.14a97.53 97.53 0 0 1-13.24 7.92l-.07.04z"/><path id="4zavn" d="M124.45 1408.01c-4.7 0-8.5-3.83-8.5-8.5a8.51 8.51 0 0 1 17 0c0 4.67-3.8 8.5-8.5 8.5z"/><path id="4zavo" d="M87.37 1413.22c-.26.72-.51 1.37-.7 2.02h-.03c-.18-.65-.36-1.3-.65-2.02l-1.55-4.45h-1.52l3 7.92h1.37l3.12-7.92h-1.52z"/><path id="4zavp" d="M96.05 1412.1c-1.05-.4-1.52-.7-1.52-1.34 0-.58.47-1.09 1.34-1.09a3 3 0 0 1 1.63.47l.36-1.04a4.06 4.06 0 0 0-1.95-.51c-1.7 0-2.75 1.05-2.75 2.31 0 .94.68 1.74 2.1 2.24 1.04.4 1.48.76 1.48 1.45 0 .65-.5 1.2-1.56 1.2-.72 0-1.48-.3-1.92-.58l-.36 1.08c.54.33 1.38.54 2.25.54 1.88 0 2.96-.97 2.96-2.38.04-1.16-.69-1.85-2.06-2.35z"/></defs><g><g transform="translate(-21 -1373)"><g opacity=".16"><g opacity=".16"/></g><g opacity=".14"><g opacity=".14"/></g><g><g/><g><g><use fill="#fff" fill-opacity="0" stroke="#1fffff" stroke-miterlimit="50" stroke-width="2" xlink:href="#4zava"/></g></g></g><g><g/><g><g><use fill="#fff" fill-opacity="0" stroke="#1fffff" stroke-miterlimit="50" stroke-width="2" xlink:href="#4zavb"/></g></g></g><g><g/><g><g><use fill="#fff" fill-opacity="0" stroke="#1fffff" stroke-miterlimit="50" stroke-width="2" xlink:href="#4zavc"/></g></g></g><g><g/><g><g><use fill="#fff" fill-opacity="0" stroke="#1fffff" stroke-miterlimit="50" stroke-width="2" xlink:href="#4zavd"/></g></g></g><g><g/><g><g><use fill="#fff" fill-opacity="0" stroke="#1fffff" stroke-miterlimit="50" stroke-width="2" xlink:href="#4zave"/></g></g></g><g><g/><g><g><use fill="#fff" fill-opacity="0" stroke="#1fffff" stroke-miterlimit="50" stroke-width="2" xlink:href="#4zave"/></g></g></g><g><g><use fill="#fff" fill-opacity="0" stroke="#fff" stroke-miterlimit="50" xlink:href="#4zava"/></g><g><use fill="#fff" fill-opacity="0" stroke="#fff" stroke-miterlimit="50" xlink:href="#4zavf"/></g><g><use fill="#fff" fill-opacity="0" stroke="#fff" stroke-miterlimit="50" xlink:href="#4zavg"/></g><g><use fill="#fff" fill-opacity="0" stroke="#fff" stroke-miterlimit="50" xlink:href="#4zavh"/></g><g><use fill="#fff" fill-opacity="0" stroke="#fff" stroke-miterlimit="50" xlink:href="#4zave"/></g></g><g><g/><g><g><g><use fill="#fff" fill-opacity="0" stroke="#f0f" stroke-miterlimit="50" stroke-width="3" xlink:href="#4zavi"/></g><g><use fill="#fff" fill-opacity="0" stroke="#f0f" stroke-miterlimit="50" stroke-width="3" xlink:href="#4zavj"/></g><g><use fill="#fff" fill-opacity="0" stroke="#f0f" stroke-miterlimit="50" stroke-width="3" xlink:href="#4zavk"/></g><g><use fill="#fff" fill-opacity="0" stroke="#f0f" stroke-miterlimit="50" stroke-width="3" xlink:href="#4zavl"/></g><g><use fill="#fff" fill-opacity="0" stroke="#f0f" stroke-miterlimit="50" stroke-width="3" xlink:href="#4zavm"/></g></g></g></g><g><g/><g><g><g><use fill="#fff" fill-opacity="0" stroke="#f0f" stroke-miterlimit="50" stroke-width="3" xlink:href="#4zavi"/></g><g><use fill="#fff" fill-opacity="0" stroke="#f0f" stroke-miterlimit="50" stroke-width="3" xlink:href="#4zavj"/></g><g><use fill="#fff" fill-opacity="0" stroke="#f0f" stroke-miterlimit="50" stroke-width="3" xlink:href="#4zavk"/></g><g><use fill="#fff" fill-opacity="0" stroke="#f0f" stroke-miterlimit="50" stroke-width="3" xlink:href="#4zavl"/></g><g><use fill="#fff" fill-opacity="0" stroke="#f0f" stroke-miterlimit="50" stroke-width="3" xlink:href="#4zavm"/></g></g></g></g><g><g><use fill="#fff" fill-opacity="0" stroke="#fff" stroke-miterlimit="50" xlink:href="#4zavn"/></g><g><use fill="#fff" fill-opacity="0" stroke="#fff" stroke-miterlimit="50" xlink:href="#4zavj"/></g><g><use fill="#fff" fill-opacity="0" stroke="#fff" stroke-miterlimit="50" xlink:href="#4zavk"/></g><g><use fill="#fff" fill-opacity="0" stroke="#fff" stroke-miterlimit="50" xlink:href="#4zavl"/></g><g><use fill="#fff" fill-opacity="0" stroke="#fff" stroke-miterlimit="50" xlink:href="#4zavm"/></g></g><g><g><use fill="#fff" xlink:href="#4zavo"/></g><g><use fill="#fff" xlink:href="#4zavp"/></g></g><g opacity=".2"><g opacity=".2"/></g></g></g></svg>