<svg xmlns="http://www.w3.org/2000/svg" xmlns:xlink="http://www.w3.org/1999/xlink" width="106" height="94" viewBox="0 0 106 94"><defs><path id="2xela" d="M50.8 1830.29v-.84h9.34v.84z"/><path id="2xelb" d="M50.98 1830.15v-.54h9v.54z"/><path id="2xelc" d="M26.22 1836.15v-.84h6.76v.84z"/><path id="2xeld" d="M26.35 1836v-.53h6.53v.54z"/><path id="2xele" d="M112.57 1836.12v-.84h6.76v.84z"/><path id="2xelf" d="M112.7 1835.98v-.53h6.52v.53z"/><path id="2xelg" d="M85.56 1830.29v-.84h9.35v.84z"/><path id="2xelh" d="M85.75 1830.12v-.53h9v.53z"/><path id="2xeli" d="M105.2 1827.53l-3.16 3.67-3.58-4.53.58-.38 3.03 3.8 3.2-3.73 2.53 3.88 2.95-3.76.6.37-3.6 4.6z"/><path id="2xelj" d="M107.75 1831.22l-2.53-3.9-3.18 3.67-3.4-4.3.37-.23 3.03 3.85 3.24-3.74 2.5 3.9 3-3.8.4.23z"/><path id="2xelk" d="M73.7 1817.28l-4.16 4.79-4.66-5.91.76-.5 3.95 4.98 4.21-4.88 3.3 5.07 3.86-4.9.79.48-4.74 6z"/><path id="2xell" d="M77.04 1822.11l-3.32-5.11-4.16 4.8-4.44-5.62.5-.3 3.94 5.02 4.21-4.86 3.32 5.1 3.92-5 .5.3z"/><path id="2xelm" d="M40.43 1827.55l-3.16 3.67-3.58-4.53.6-.37 3 3.8 3.25-3.73 2.5 3.87 2.97-3.76.58.38-3.6 4.6z"/><path id="2xeln" d="M42.98 1831.24l-2.52-3.9-3.19 3.67-3.4-4.3.4-.23 3.03 3.85 3.21-3.73 2.53 3.9 3-3.81.37.23z"/><path id="2xelo" d="M62.33 1797.52c1.08 2.36 5.81 4.3 10.58 4.3 4.47 0 9.47-2.06 10.58-4.32l-10.61.51zm10.58 5.02c-5.45 0-10.85-2.47-11.53-5.32l-.1-.45 11.6.56 11.66-.56-.1.45c-.72 2.99-6.8 5.32-11.53 5.32z"/><path id="2xelp" d="M62.06 1797.36c.9 2.5 5.82 4.64 10.85 4.62 4.76 0 9.94-2.26 10.84-4.65l-10.9.52zm10.85 5.02c-5.37 0-10.69-2.43-11.35-5.19l-.05-.25 11.37.53 11.45-.56-.05.26c-.74 2.94-6.69 5.2-11.37 5.2z"/><path id="2xelq" d="M97.93 1813.21c.69 1.5 3.71 2.76 6.77 2.76 2.87 0 6.05-1.33 6.76-2.76l-6.79.33zm6.77 3.2c-3.5 0-6.92-1.58-7.37-3.4l-.08-.29 7.42.35 7.45-.35-.08.28c-.45 1.92-4.32 3.41-7.34 3.41z"/><path id="2xelr" d="M97.75 1813.1c.55 1.59 3.74 2.96 6.95 2.96 3.02 0 6.37-1.44 6.92-2.96l-6.98.32zm6.95 3.2c-3.45 0-6.82-1.54-7.27-3.32l-.02-.16 7.26.35 7.32-.35-.03.16c-.47 1.87-4.29 3.32-7.26 3.32z"/><path id="2xels" d="M34.38 1812.7c.68 1.5 3.7 2.76 6.76 2.76 2.87 0 6.05-1.33 6.77-2.76l-6.8.33zm6.76 3.2c-3.5 0-6.92-1.59-7.37-3.4l-.08-.29 7.43.35 7.44-.35-.08.28c-.44 1.92-4.31 3.41-7.34 3.41z"/><path id="2xelt" d="M34.2 1812.58c.55 1.6 3.73 2.97 6.94 2.97 3.03 0 6.37-1.45 6.92-2.97l-6.97.33zm6.94 3.23c-3.45 0-6.81-1.54-7.26-3.32l-.03-.16 7.27.35 7.31-.35-.02.16c-.48 1.85-4.3 3.3-7.27 3.32z"/><path id="2xelu" d="M32.25 1848.85v-13.73h1.34v13.73z"/><path id="2xelv" d="M32.43 1848.71v-13.43h1v13.43z"/><path id="2xelw" d="M32.59 1848.55v-13.13h.66v13.13z"/><path id="2xelx" d="M59.54 1853.36v-25.43h1.34v25.43z"/><path id="2xely" d="M59.7 1853.22v-25.13h1v25.13z"/><path id="2xelz" d="M59.88 1853.06v-24.83h.66v24.83z"/><path id="2xelA" d="M85.12 1853.36v-25.43h1.34v25.43z"/><path id="2xelB" d="M85.3 1853.2v-25.13h1v25.13z"/><path id="2xelC" d="M85.46 1853.06v-24.83h.66v24.83z"/><path id="2xelD" d="M112.4 1848.83v-13.73h1.35v13.73z"/><path id="2xelE" d="M112.6 1848.69v-13.43h1v13.43z"/><path id="2xelF" d="M112.75 1848.53v-13.13h.66v13.13z"/><path id="2xelG" d="M72.99 1789.56c-6.69 0-12.11 4.83-12.11 10.76 0 5.94 5.45 10.75 12.13 10.75 6.69 0 12.1-4.84 12.1-10.77s-5.44-10.74-12.12-10.74zm0 22.72c-7.43 0-13.48-5.35-13.48-11.96 0-6.58 6.03-11.95 13.48-11.95 7.42 0 13.47 5.34 13.47 11.95 0 6.59-6.03 11.96-13.47 11.96z"/><path id="2xelH" d="M72.99 1789.42c-6.8 0-12.3 4.9-12.3 10.9 0 6.03 5.53 10.91 12.3 10.91 6.76 0 12.29-4.9 12.29-10.9 0-6.03-5.53-10.91-12.3-10.91zm0 22.7c-7.35 0-13.3-5.3-13.32-11.8 0-6.51 5.97-11.79 13.29-11.81 7.34 0 13.29 5.3 13.32 11.79.02 6.5-5.95 11.82-13.3 11.82z"/><path id="2xelI" d="M72.99 1789.25c-6.87 0-12.45 4.98-12.45 11.07 0 6.1 5.6 11.05 12.47 11.05 6.87 0 12.45-4.97 12.45-11.07 0-6.1-5.6-11.05-12.47-11.05zm0 22.73c-7.24 0-13.14-5.23-13.14-11.66 0-6.42 5.9-11.65 13.14-11.65 7.23 0 13.13 5.23 13.13 11.65 0 6.43-5.9 11.66-13.13 11.66z"/><path id="2xelJ" d="M41.27 1808.87c-4.23 0-7.66 3.06-7.66 6.82 0 3.76 3.45 6.8 7.69 6.8s7.66-3.06 7.66-6.82c-.03-3.74-3.48-6.8-7.69-6.8zm0 14.83c-4.97 0-9.02-3.6-9.02-8.01s4.05-8.01 9.02-8.01c4.98 0 9.03 3.6 9.03 8.01-.03 4.41-4.05 8.01-9.03 8.01z"/><path id="2xelK" d="M41.27 1808.73c-4.31 0-7.84 3.13-7.84 6.96s3.53 6.96 7.84 6.96c4.32 0 7.85-3.13 7.85-6.96-.03-3.83-3.53-6.96-7.85-6.96zm0 14.8c-4.87 0-8.84-3.52-8.84-7.84s3.97-7.85 8.84-7.85c4.87 0 8.85 3.53 8.85 7.85s-3.98 7.85-8.85 7.85z"/><path id="2xelL" d="M41.27 1808.6c-4.42 0-8 3.19-8 7.09 0 3.92 3.6 7.1 8 7.1 4.42 0 8-3.2 8-7.1 0-3.92-3.6-7.12-8-7.1zm0 14.8c-4.79 0-8.68-3.46-8.68-7.71s3.9-7.7 8.68-7.7c4.8 0 8.69 3.45 8.69 7.7s-3.9 7.7-8.69 7.7z"/><path id="2xelM" d="M94.14 1849.13v-1.19h24.32l.4-16.09c0-2.66-2.5-4.83-5.56-4.83H94.57v-1.2h18.73c3.82 0 6.92 2.71 6.92 6.05l-.42 17.29z"/><path id="2xelN" d="M94.33 1849v-.9h24.32l.39-16.23c0-2.75-2.58-5-5.74-5H94.72v-.88h18.58c3.71 0 6.74 2.64 6.74 5.9l-.42 17.13z"/><path id="2xelO" d="M119.46 1848.83H94.5v-.59h24.31l.4-16.39c0-2.85-2.66-5.16-5.9-5.16H94.9v-.58h18.4c3.63 0 6.58 2.56 6.58 5.74z"/><path id="2xelP" d="M104.72 1808.87c-4.23 0-7.65 3.06-7.65 6.82 0 3.76 3.44 6.8 7.68 6.8s7.66-3.06 7.66-6.82c0-3.76-3.45-6.82-7.69-6.8zm0 14.8c-4.97 0-9.02-3.59-9.02-8 0-4.42 4.05-8.01 9.02-8.01 4.98 0 9.03 3.6 9.03 8 0 4.42-4.05 8.02-9.03 8.02z"/><path id="2xelQ" d="M104.72 1808.7c-4.31 0-7.84 3.14-7.84 6.97 0 3.83 3.53 6.96 7.84 6.96 4.32 0 7.85-3.13 7.85-6.96s-3.53-6.96-7.85-6.96zm0 14.81c-4.86 0-8.84-3.52-8.84-7.84s3.98-7.85 8.84-7.85c4.87 0 8.85 3.53 8.85 7.85s-3.95 7.84-8.85 7.84z"/><path id="2xelR" d="M104.72 1808.57c-4.42 0-8 3.2-8 7.1 0 3.92 3.6 7.1 8 7.1 4.42 0 8-3.2 8-7.1 0-3.93-3.58-7.13-8-7.1zm0 14.8c-4.79 0-8.68-3.45-8.68-7.7s3.9-7.71 8.68-7.71c4.8 0 8.69 3.46 8.69 7.7 0 4.26-3.9 7.71-8.69 7.71z"/><path id="2xelS" d="M25.61 1849.16l.16-17.29c0-3.34 3.1-6.04 6.9-6.04H51.4v1.19H32.67c-3.06 0-5.56 2.17-5.56 4.85l-.15 16.07h24.29v1.2z"/><path id="2xelT" d="M25.8 1849.02l.16-17.12c0-3.25 3.02-5.91 6.73-5.91h18.58v.89H32.7c-3.15 0-5.73 2.24-5.73 5l-.16 16.22h24.29v.9z"/><path id="2xelU" d="M50.93 1848.85H25.96l.15-16.98c0-3.17 2.95-5.74 6.56-5.74h18.4v.58h-18.4c-3.27 0-5.9 2.31-5.9 5.16l-.16 16.37h24.3z"/><path id="2xelV" d="M59.88 1816.13h26.24c4.47 0 8.1 3.18 8.1 7.08v27.9c.06.22.08.4.08.64 0 .63-.02 1.26-.08 1.89h1.35v-30.43c0-4.55-4.24-8.27-9.45-8.27H59.88c-5.21 0-9.45 3.72-9.45 8.3l.03 30.42h1.6v-1.19h-.26l-.03-29.24c0-3.9 3.64-7.07 8.1-7.1z"/><path id="2xelW" d="M59.88 1816h26.24c4.55 0 8.26 3.24 8.26 7.23l.03 29.38h-.1c0 .3-.03.6-.06.89h1.16l-.03-30.27c0-4.48-4.16-8.12-9.29-8.12H59.85c-5.1 0-9.29 3.64-9.29 8.12l.03 30.27H52v-.89h-.42l.03-29.38c-.03-3.99 3.68-7.24 8.26-7.24z"/><path id="2xelX" d="M59.88 1815.85h26.24c4.66 0 8.45 3.32 8.45 7.38l.02 29.52h-.29l-.02.59h.97l-.03-30.13c0-4.4-4.08-7.99-9.1-7.96H59.88c-5.03 0-9.1 3.57-9.1 7.98l.02 30.13h1.26v-.58h-.58l-.05-29.55c0-4.08 3.8-7.38 8.45-7.38z"/><path id="2xelY" d="M65.17 1857.75c-1.26 0-2.32.96-2.32 2.13v6.3l.03.12c.55 5.04 5.45 8.99 11.13 8.99 6 0 11-4.32 11.16-9.65V1859.08c0-1.17-1.03-2.12-2.32-2.12-.52 0-1.05.16-1.44.49l-.56.42-.18-.63a2.29 2.29 0 0 0-2.21-1.57c-.55 0-1.1.19-1.53.54l-.5.42-.23-.58a2.32 2.32 0 0 0-2.16-1.36c-.5 0-.98.14-1.37.42l-.76.51v-7.87c0-1.16-1.03-2.12-2.32-2.12-1.29 0-2.32.96-2.32 2.12v10.96l-.76-.52c-.37-.3-.84-.44-1.34-.44zm8.87 18.36c-6.13 0-11.42-4.23-12.03-9.65-.05-.1-.05-.2-.05-.3v-6.28c0-1.64 1.45-2.97 3.24-2.97.42 0 .81.07 1.18.2v-9.36c0-1.63 1.45-2.96 3.24-2.96 1.79 0 3.23 1.33 3.23 2.96v6.36a3.4 3.4 0 0 1 3.95 1.19c.5-.28 1.08-.42 1.69-.42 1.23 0 2.36.65 2.89 1.63.47-.23 1-.35 1.53-.35 1.79 0 3.23 1.33 3.23 2.97v6.61c-.18 5.7-5.6 10.37-12.1 10.37z"/><path id="2xelZ" d="M85.43 1865.67c-.15 5.41-5.29 9.83-11.4 9.83-5.8 0-10.78-4.02-11.33-9.13l-.03-.07c-.03-.05-.03-.07-.03-.12v-6.28c0-1.29 1.13-2.34 2.56-2.34.55 0 1.07.17 1.52.47l.37.26v-10.51c0-1.29 1.13-2.34 2.55-2.34 1.4 0 2.56 1.05 2.56 2.34v7.47l.36-.26c.45-.3.98-.46 1.53-.46 1.03 0 2 .6 2.37 1.5l.13.27.26-.2c.48-.38 1.08-.62 1.69-.62 1.13 0 2.16.7 2.45 1.73l.1.3.29-.2a2.62 2.62 0 0 1 1.6-.54c1.4 0 2.56 1.05 2.56 2.33v6.5h.24zm-2.52-9.32c-.58 0-1.16.16-1.63.44a3.02 3.02 0 0 0-2.8-1.73c-.63 0-1.26.2-1.76.52a3.05 3.05 0 0 0-2.66-1.5c-.5 0-1 .12-1.42.33v-6.66c0-1.51-1.34-2.75-3-2.75-1.65 0-3 1.24-3 2.75v9.72a3.31 3.31 0 0 0-1.42-.33c-1.66 0-3 1.24-3 2.76v6.28c0 .1.03.16.05.26.61 5.32 5.8 9.48 11.82 9.48 6.37 0 11.69-4.6 11.87-10.2v-6.6a2.97 2.97 0 0 0-3.05-2.77z"/><path id="2xelaa" d="M85.43 1865.67c-.15 5.41-5.29 9.83-11.4 9.83-5.8 0-10.78-4.02-11.33-9.13l-.03-.07c-.03-.05-.03-.07-.03-.12v-6.28c0-1.29 1.13-2.34 2.56-2.34.55 0 1.07.17 1.52.47l.37.26v-10.51c0-1.29 1.13-2.34 2.55-2.34 1.4 0 2.56 1.05 2.56 2.34v7.47l.36-.26c.45-.3.98-.46 1.53-.46 1.03 0 2 .6 2.37 1.5l.13.27.26-.2c.48-.38 1.08-.62 1.69-.62 1.13 0 2.16.7 2.45 1.73l.1.3.29-.2a2.62 2.62 0 0 1 1.6-.54c1.4 0 2.56 1.05 2.56 2.33v6.5h.24zm-2.52-9.32c-.58 0-1.16.16-1.63.44a3.02 3.02 0 0 0-2.8-1.73c-.63 0-1.26.2-1.76.52a3.05 3.05 0 0 0-2.66-1.5c-.5 0-1 .12-1.42.33v-6.66c0-1.51-1.34-2.75-3-2.75-1.65 0-3 1.24-3 2.75v9.72a3.31 3.31 0 0 0-1.42-.33c-1.66 0-3 1.24-3 2.76v6.28c0 .1.03.16.05.26.61 5.32 5.8 9.48 11.82 9.48 6.37 0 11.69-4.6 11.87-10.2v-6.6a2.97 2.97 0 0 0-3.05-2.77z"/></defs><g><g transform="translate(-20 -1784)"><g><g><g><g><g><g opacity=".74"/><g><g><use fill="#ff0141" xlink:href="#2xela"/></g></g></g></g><g><use fill="#f7edf0" xlink:href="#2xelb"/></g></g><g><g><g><g opacity=".74"/><g><g><use fill="#ff0141" xlink:href="#2xelc"/></g></g></g></g><g><use fill="#f7edf0" xlink:href="#2xeld"/></g></g><g><g><g><g opacity=".74"/><g><g><use fill="#ff0141" xlink:href="#2xele"/></g></g></g></g><g><use fill="#f7edf0" xlink:href="#2xelf"/></g></g><g><g><g><g opacity=".74"/><g><g><use fill="#ff0141" xlink:href="#2xelg"/></g></g></g></g><g><use fill="#f7edf0" xlink:href="#2xelh"/></g></g></g><g><g><g opacity=".74"/><g><g><use fill="#ff0141" xlink:href="#2xeli"/></g></g></g><g><use fill="#fcfcfc" xlink:href="#2xelj"/></g></g><g><g><g opacity=".74"/><g><g><use fill="#ff0141" xlink:href="#2xelk"/></g></g></g><g><use fill="#fcfcfc" xlink:href="#2xell"/></g></g><g><g><g opacity=".74"/><g><g><use fill="#ff0141" xlink:href="#2xelm"/></g></g></g><g><use fill="#fcfcfc" xlink:href="#2xeln"/></g></g><g><g><g opacity=".74"/><g><g><use fill="#ff0141" xlink:href="#2xelo"/></g></g></g><g><use fill="#f9eff2" xlink:href="#2xelp"/></g></g><g><g><g opacity=".74"/><g><g><use fill="#ff0141" xlink:href="#2xelq"/></g></g></g><g><use fill="#f9eff2" xlink:href="#2xelr"/></g></g><g><g><g opacity=".74"/><g><g><use fill="#ff0141" xlink:href="#2xels"/></g></g></g><g><use fill="#f9eff2" xlink:href="#2xelt"/></g></g><g><g><g><g opacity=".09"/><g><g/><g><g><use fill="#ff0141" xlink:href="#2xelu"/></g></g></g></g><g><g/><g><g><use fill="#ff0141" xlink:href="#2xelv"/></g></g></g><g><use fill="#f8f7f9" xlink:href="#2xelw"/></g></g><g><g><g opacity=".09"/><g><g/><g><g><use fill="#ff0141" xlink:href="#2xelx"/></g></g></g></g><g><g/><g><g><use fill="#ff0141" xlink:href="#2xely"/></g></g></g><g><use fill="#f8f7f9" xlink:href="#2xelz"/></g></g><g><g><g opacity=".09"/><g><g/><g><g><use fill="#ff0141" xlink:href="#2xelA"/></g></g></g></g><g><g/><g><g><use fill="#ff0141" xlink:href="#2xelB"/></g></g></g><g><use fill="#f8f7f9" xlink:href="#2xelC"/></g></g><g><g><g opacity=".09"/><g><g/><g><g><use fill="#ff0141" xlink:href="#2xelD"/></g></g></g></g><g><g/><g><g><use fill="#ff0141" xlink:href="#2xelE"/></g></g></g><g><use fill="#f8f7f9" xlink:href="#2xelF"/></g></g><g><g><g opacity=".09"/><g><g/><g><g><use fill="#ff0141" xlink:href="#2xelG"/></g></g></g></g><g><g/><g><g><use fill="#ff0141" xlink:href="#2xelH"/></g></g></g><g><use fill="#f8f7f9" xlink:href="#2xelI"/></g></g><g><g><g opacity=".09"/><g><g/><g><g><use fill="#ff0141" xlink:href="#2xelJ"/></g></g></g></g><g><g/><g><g><use fill="#ff0141" xlink:href="#2xelK"/></g></g></g><g><use fill="#f8f7f9" xlink:href="#2xelL"/></g></g><g><g><g opacity=".09"/><g><g/><g><g><use fill="#ff0141" xlink:href="#2xelM"/></g></g></g></g><g><g/><g><g><use fill="#ff0141" xlink:href="#2xelN"/></g></g></g><g><use fill="#f8f7f9" xlink:href="#2xelO"/></g></g><g><g><g opacity=".09"/><g><g/><g><g><use fill="#ff0141" xlink:href="#2xelP"/></g></g></g></g><g><g/><g><g><use fill="#ff0141" xlink:href="#2xelQ"/></g></g></g><g><use fill="#f8f7f9" xlink:href="#2xelR"/></g></g><g><g><g opacity=".09"/><g><g/><g><g><use fill="#ff0141" xlink:href="#2xelS"/></g></g></g></g><g><g/><g><g><use fill="#ff0141" xlink:href="#2xelT"/></g></g></g><g><use fill="#f8f7f9" xlink:href="#2xelU"/></g></g><g><g><g opacity=".09"/><g><g/><g><g><use fill="#ff0141" xlink:href="#2xelV"/></g></g></g></g><g><g/><g><g><use fill="#ff0141" xlink:href="#2xelW"/></g></g></g><g><use fill="#f8f7f9" xlink:href="#2xelX"/></g></g></g></g><g><g><g opacity=".5"/><g><g><use fill="#00edff" xlink:href="#2xelY"/></g></g></g><g><use fill="#fff" xlink:href="#2xelZ"/></g><g opacity=".29"><g opacity=".29"/></g><g><g opacity=".5"/><g><g><use fill="#00edff" xlink:href="#2xelaa"/></g></g></g><g><use fill="#fff" xlink:href="#2xelZ"/></g></g></g></g></svg>