<svg xmlns="http://www.w3.org/2000/svg" xmlns:xlink="http://www.w3.org/1999/xlink" width="126" height="82" viewBox="0 0 126 82"><defs><path id="4akga" d="M68.35 1608.33h4.69c.03 0 2.12-.02 3.28-1.3.47-.52.75-1.18.78-2h-9.28v-.42h9.28c-.17-3.26-3.92-4.17-4.09-4.22h-5.19v-.42h12.12v.42h-5.69c1.33.58 3.12 1.82 3.23 4.19h2.46v.41h-2.46a3.36 3.36 0 0 1-.88 2.3c-1.27 1.37-3.45 1.4-3.56 1.4H69.2l6.6 8.06-.28.28z"/><path id="4akgb" d="M41.52 1585.76h74.87l-6.45 45.06h-74.9"/><path id="4akgc" d="M50.93 1593.07h49.02c-.34 4.09 3.97 7.62 6.65 7.04a714.02 714.02 0 0 1-2.87 16.59c-5.03-.78-6.82 5.65-6.46 7.23-9.69-.2-49.92 0-49.92 0 .9-3.32-2.51-8-6.3-7.23 1.08-5.28 3.07-16.4 3.07-16.4 3.94.97 7.53-4.3 6.81-7.23z"/><path id="4akgd" d="M24.28 1592.99h19.56"/><path id="4akge" d="M25.71 1603.5h13.3"/><path id="4akgf" d="M27.15 1613.85h8.96"/><path id="4akgg" d="M28.77 1623.79h5.39"/><path id="4akgh" d="M114.4 1644.23h-10.73c-5.46-2.74-1.16-6.82 0-7.01h6.82l3.31-3.5h11.32l9.74 7.8"/><path id="4akgi" d="M122.8 1653.77l-1.96-1.35H102.1l-16.58-18.74c-1.96-4.3 2.92-6.23 4.3-5.07 1.35 1.16 11.15 11.26 11.15 11.26"/><path id="4akgj" d="M119.96 1656.48l18.7-18.93 4.9 5.27-18.94 18.35z"/><path id="4akgk" d="M114.4 1644.23h-10.73c-5.46-2.74-1.16-6.82 0-7.01h6.82l3.31-3.5h11.32l9.74 7.8"/><path id="4akgl" d="M122.8 1653.77l-1.96-1.35H102.1l-16.58-18.74c-1.96-4.3 2.92-6.23 4.3-5.07 1.35 1.16 11.15 11.26 11.15 11.26"/><path id="4akgm" d="M119.96 1656.48l18.7-18.93 4.9 5.27-18.94 18.35z"/><path id="4akgn" d="M120.01 1656.4l18.57-18.96 4.97 5.24-18.85 18.4z"/></defs><g><g transform="translate(-22 -1583)"><g opacity=".19"><g opacity=".19"/></g><g><g/><g><g><g><use fill="#0f0" xlink:href="#4akga"/></g><g><use fill="#fff" fill-opacity="0" stroke="#0f0" stroke-miterlimit="50" stroke-width="2" xlink:href="#4akgb"/></g><g><use fill="#fff" fill-opacity="0" stroke="#0f0" stroke-miterlimit="50" stroke-width="2" xlink:href="#4akgc"/></g><g><use fill="#fff" fill-opacity="0" stroke="#0f0" stroke-miterlimit="50" stroke-width="2" xlink:href="#4akgd"/></g><g><use fill="#fff" fill-opacity="0" stroke="#0f0" stroke-miterlimit="50" stroke-width="2" xlink:href="#4akge"/></g><g><use fill="#fff" fill-opacity="0" stroke="#0f0" stroke-miterlimit="50" stroke-width="2" xlink:href="#4akgf"/></g><g><use fill="#fff" fill-opacity="0" stroke="#0f0" stroke-miterlimit="50" stroke-width="2" xlink:href="#4akgg"/></g></g></g></g><g><g/><g><g><g><use fill="#fff" fill-opacity="0" stroke="#fff" stroke-miterlimit="50" stroke-width=".75" xlink:href="#4akga"/></g><g><use fill="#fff" fill-opacity="0" stroke="#fff" stroke-miterlimit="50" stroke-width=".75" xlink:href="#4akgb"/></g><g><use fill="#fff" fill-opacity="0" stroke="#fff" stroke-miterlimit="50" stroke-width=".75" xlink:href="#4akgc"/></g><g><use fill="#fff" fill-opacity="0" stroke="#fff" stroke-miterlimit="50" stroke-width=".75" xlink:href="#4akgd"/></g><g><use fill="#fff" fill-opacity="0" stroke="#fff" stroke-miterlimit="50" stroke-width=".75" xlink:href="#4akge"/></g><g><use fill="#fff" fill-opacity="0" stroke="#fff" stroke-miterlimit="50" stroke-width=".75" xlink:href="#4akgf"/></g><g><use fill="#fff" fill-opacity="0" stroke="#fff" stroke-miterlimit="50" stroke-width=".75" xlink:href="#4akgg"/></g></g></g></g><g><g><g/><g><g><use fill="#fff" fill-opacity="0" stroke="#00f" stroke-miterlimit="50" xlink:href="#4akgh"/></g></g></g><g><g/><g><g><use fill="#fff" fill-opacity="0" stroke="#00f" stroke-miterlimit="50" xlink:href="#4akgi"/></g></g></g><g><g/><g><g><use fill="#fff" fill-opacity="0" stroke="#00f" stroke-miterlimit="50" xlink:href="#4akgj"/></g></g></g></g><g><g opacity=".15"/><g><g><g><g/><g><g><use fill="#fff" fill-opacity="0" stroke="#00f" stroke-miterlimit="50" stroke-width="3" xlink:href="#4akgk"/></g></g></g><g><g/><g><g><use fill="#fff" fill-opacity="0" stroke="#00f" stroke-miterlimit="50" stroke-width="3" xlink:href="#4akgl"/></g></g></g><g><g/><g><g><use fill="#fff" fill-opacity="0" stroke="#00f" stroke-miterlimit="50" stroke-width="3" xlink:href="#4akgm"/></g></g></g></g></g></g><g><g><g/><g><g><use fill="#fff" fill-opacity="0" stroke="#0ff" stroke-miterlimit="50" stroke-width="2" xlink:href="#4akgh"/></g></g></g><g><g/><g><g><use fill="#fff" fill-opacity="0" stroke="#0ff" stroke-miterlimit="50" stroke-width="2" xlink:href="#4akgi"/></g></g></g><g><g/><g><g><use fill="#fff" fill-opacity="0" stroke="#0ff" stroke-miterlimit="50" stroke-width="2" xlink:href="#4akgn"/></g></g></g></g></g></g></svg>